<svg width="740" height="740" viewBox="0 0 740 740" fill="none" xmlns="http://www.w3.org/2000/svg">
<g clip-path="url(#clip0_374_706)">
<path d="M0 370V740H370H740V370V0H370H0V370ZM346.043 81.1051C346.043 106.576 345.91 127.355 345.644 127.355C345.378 127.355 335.662 124.004 323.95 119.714C305.183 113.011 301.59 112.207 292.14 112.072C260.464 111.804 229.853 131.913 216.809 161.54C211.219 174.141 212.151 208.996 218.406 226.022C222.665 237.283 231.183 249.08 239.835 255.514C254.741 266.507 273.773 273.746 288.147 273.746C304.385 273.746 332.734 265.569 338.59 259.134C340.719 256.855 342.05 256.319 342.716 257.391C344.579 260.341 345.91 285.275 346.043 316.511V348.149L325.148 348.953C313.568 349.489 295.734 349.891 285.486 349.891C260.597 350.025 234.112 352.036 225.46 354.583C213.349 358.069 209.356 365.71 209.889 384.076C210.288 399.091 212.683 409.279 217.741 417.188C223.065 425.366 227.324 438.236 228.522 449.094C229.853 463.036 221.601 475.638 207.626 480.598C195.914 484.754 177.547 482.475 166.899 475.504C154.255 467.326 154.255 444.804 166.899 417.188C179.277 389.841 178.079 370.938 162.773 356.46L157.716 351.5L123.777 350.696C105.144 350.293 77.9928 349.489 63.6187 349.087L37.2662 348.149V199.076V49.8696L43.6547 45.0435C47.2482 42.4964 51.9065 39.6812 54.036 38.7427C60.9568 36.0616 95.4281 35.2573 222 35.1232L346.043 34.8551V81.1051ZM661.608 36.0616C684.101 37.4022 685.831 37.9384 694.615 45.9819L700.072 50.942L699.806 200.149L699.407 349.221L678.777 349.623C654.82 350.025 613.827 348.014 612.23 346.406C611.565 345.736 612.496 341.714 614.36 337.156C622.612 317.851 622.212 319.996 622.212 292.917C622.212 269.591 621.946 266.775 619.151 259.938C614.626 248.678 608.77 240.5 599.719 233.127C583.748 219.989 569.108 215.297 544.353 215.297C525.054 215.297 515.205 217.576 501.363 224.815C479.403 236.478 465.827 263.156 465.827 294.525C465.827 308.736 467.957 317.449 475.277 333.804C478.205 340.507 480.335 346.406 480.068 346.808C478.737 348.014 430.824 350.025 411.259 349.623L391.96 349.221L391.162 296.938C390.23 243.315 389.432 234.467 384.108 224.145C379.317 214.895 370.399 210.471 356.291 210.471C344.978 210.471 336.594 212.616 320.356 219.989C294.802 231.518 278.831 232.054 267.518 221.732C260.198 215.029 257.536 207.12 257.536 192.373C257.669 179.906 260.331 170.656 265.921 164.355C272.309 157.116 288.147 154.837 302.255 158.993C306.115 160.199 315.299 164.087 322.486 167.707C339.122 176.152 350.435 178.967 360.018 176.957C372.662 174.275 383.309 163.685 388.101 148.804C390.097 142.37 390.496 134.594 390.896 89.8188C391.162 61.3986 391.694 37.4022 391.96 36.4638C392.36 35.2573 418.579 34.8551 516.669 34.8551C584.946 34.9891 650.162 35.5254 661.608 36.0616ZM557.13 258.062C570.439 262.083 578.824 272.808 580.022 287.554C580.687 297.341 578.158 307.261 571.637 320.264C566.047 331.257 562.853 344.529 562.586 357.935C562.32 366.783 562.719 368.659 565.914 374.022C567.91 377.373 571.637 382.199 574.032 384.88L578.291 389.841L616.223 390.645C637.119 391.181 664.536 391.851 677.18 392.254L700.205 393.058L699.673 538.109C699.407 636.105 698.741 684.634 697.676 688.12C695.946 694.822 691.554 699.38 685.565 701.123C677.712 703.402 619.817 704.877 501.896 705.815L390.896 706.62L391.561 663.319C391.96 633.692 392.626 619.08 393.691 617.069L395.288 614.254L416.849 621.761C443.068 630.877 451.586 631.547 469.155 625.649C503.36 614.254 521.727 590.257 523.856 553.928C524.921 536.232 522.126 521.486 515.205 507.275C502.428 481.402 478.471 467.862 445.198 467.862C429.759 467.862 425.234 469.069 406.468 477.649C399.014 481.134 392.626 483.949 392.094 483.949C391.694 483.949 391.295 463.438 391.295 438.37C391.295 402.844 391.694 392.79 393.025 392.79C423.237 392.388 500.565 389.707 506.022 388.768C515.737 387.293 519.464 384.478 523.856 375.63C527.183 369.062 527.317 367.721 526.784 354.181C526.252 341.178 525.719 338.764 521.194 328.442C513.874 312.221 511.212 301.496 511.212 288.359C511.079 276.025 512.943 271.199 519.996 265.971C532.64 256.587 544.086 254.04 557.13 258.062ZM122.845 393.996C124.842 394.801 126.439 396.141 126.439 396.946C126.439 397.884 124.043 403.783 121.248 410.083C114.46 424.696 112.464 436.359 113.662 453.786C114.993 476.576 119.518 488.507 131.363 501.377C144.273 515.587 159.18 522.692 181.939 525.641C220.802 530.601 256.072 510.627 267.651 476.978C270.18 469.873 270.579 465.583 270.712 450.435C270.712 429.924 269.781 425.232 261.928 408.475C258.068 400.029 256.871 396.275 257.935 395.203C260.065 393.058 292.54 391.315 320.755 391.717L345.378 392.12L346.176 443.062C347.241 508.214 348.705 516.659 360.817 525.507C372.662 534.087 387.835 533.953 409.529 524.837C431.09 515.721 435.748 514.38 446.795 513.71C456.112 513.174 458.507 513.576 463.831 516.123C471.684 520.011 475.942 525.641 478.604 536.366C482.597 552.319 479.137 570.014 470.353 577.656C459.439 587.308 444.133 586.906 419.91 576.047C399.414 566.931 391.295 564.518 382.112 564.384C368.27 564.384 358.022 570.953 353.097 583.018C347.906 595.217 347.108 604.601 346.176 655.543L345.378 705.815L252.878 706.217C158.514 706.62 75.464 705.011 59.8921 702.464C49.6439 700.855 41.7914 697.638 40.5935 694.554C38.7302 690.13 37.3993 610.232 37.3993 502.181L37.2662 391.047L78.259 391.717C103.147 392.254 120.583 393.058 122.845 393.996Z" fill="#FF8040"/>
</g>
<defs>
<clipPath id="clip0_374_706">
<rect width="740" height="740" rx="50" fill="white"/>
</clipPath>
</defs>
</svg>
